<svg xmlns="http://www.w3.org/2000/svg" viewBox="0 0 127.367 38.871">
    <defs>
        <style>
            .cls-1{fill:#f1404b}
        </style>
    </defs>
    <g id="Group_1185" data-name="Group 1185" transform="translate(1324.32 -25.914)">
        <g id="Group_1" data-name="Group 1" transform="translate(-1324.32 25.914)">
            <path id="Path_138" d="M.408 8.3h4.97l.408.408V20.69c0 2.042.817 3.744 3.336 3.744 2.927 0 4.153-2.042 4.153-4.969V8.708l.408-.408h4.969l.408.408v19.878l-.408.408h-4.561l-.408-.408-.408-1.225h-.408S11.641 29.4 7.9 29.4c-4.973 0-7.9-3.264-7.9-8.234V8.708z" class="cls-1" data-name="Path 138" transform="translate(0 -2.65)"/>
            <path id="Path_139" d="M48.475 13.269h-2.928c-3.336 0-4.561 1.634-4.561 5.378v9.939l-.408.408h-4.97l-.408-.408V8.708l.408-.408h4.561l.408.408.408 1.225h.408S42.212 8.3 45.956 8.3h2.451l.408.408v4.153z" class="cls-1" data-name="Path 139" transform="translate(-11.238 -2.65)"/>
            <path id="Path_140" d="M71.773 26.753a6.945 6.945 0 0 1-5.378-2.042h-.408l-.408 1.225-.408.408h-4.563l-.408-.408V.408L60.608 0h4.969l.408.408v6.944h.408a6.945 6.945 0 0 1 5.38-2.042c4.969 0 9.122 4.153 9.122 10.756-.068 6.535-4.153 10.688-9.122 10.688m-1.226-16.543c-3.336 0-4.561 2.451-4.561 5.786s1.225 5.786 4.561 5.786 4.561-2.45 4.561-5.783c-.068-3.268-1.293-5.786-4.561-5.786" class="cls-1" data-name="Path 140" transform="translate(-19.219)"/>
            <path id="Path_141" d="M105.99 28.586l-.408.408h-4.562l-.408-.408L93.6 12.861V8.708l.408-.408h3.744l.408.408 4.969 12.866h.408l4.969-12.866.408-.408h3.676l.477.408v4.153z" class="cls-1" data-name="Path 141" transform="translate(-29.882 -2.65)"/>
            <path id="Path_142" d="M142.967 28.835h-4.561l-.406-.408-.408-.817h-.408a6.748 6.748 0 0 1-4.561 1.634c-4.561 0-7.42-2.451-7.42-6.6 0-6.195 5.786-7.012 9.122-7.012a10.782 10.782 0 0 1 2.927.408l.408-.408v-.412c0-2.042-.408-2.451-2.927-2.451-1.225 0-2.451 0-2.927 1.225l-.408.408h-4.969l-.408-.408c0-2.451 2.042-6.195 8.714-6.195 6.6 0 8.714 3.336 8.714 9.53v11.166zm-5.786-8.645a5.929 5.929 0 0 0-2.451-.408c-2.451 0-3.744.817-3.744 2.451 0 1.225.817 2.042 2.927 2.042 2.042 0 3.744-1.225 3.744-2.927v-.818z" class="cls-1" data-name="Path 142" transform="translate(-39.971 -2.49)"/>
            <path id="Path_143" d="M177.661 28.8h-4.969l-.408-.408V16.414c0-2.042-.817-3.744-3.336-3.744-2.927 0-4.561 1.634-4.561 5.378v10.347l-.408.408h-4.969l-.408-.408V8.517l.408-.408h4.561l.408.408.408 1.225h.408a7.252 7.252 0 0 1 5.378-2.042c4.969 0 7.829 3.336 7.829 8.305v12.39z" class="cls-1" data-name="Path 143" transform="translate(-50.634 -2.458)"/>
            <path id="Path_144" d="M127.4 50.735a.361.361 0 0 0 .408.408h1.292l.136.136v1.43l-.136.136h-1.293c-1.293 0-2.383-.545-2.383-2.11V47.6l-.136-.136h-.953l-.136-.136V45.9l.136-.136h.953l.136-.136v-1.292l.136-.136h1.7l.136.136v1.294l.136.136h1.568l.136.136v1.43l-.136.136h-1.566l-.136.136z" class="cls-1" data-name="Path 144" transform="translate(-39.651 -14.111)"/>
            <path id="Path_145" d="M138.193 48.234h-.953c-1.157 0-1.566.545-1.566 1.838v3.4l-.136.136h-1.7l-.136-.136v-6.736l.136-.136h1.562l.136.136.136.408h.136s.272-.545 1.566-.545h.817l.136.136v1.43z" class="cls-1" data-name="Path 145" transform="translate(-42.684 -14.877)"/>
            <path id="Path_146" d="M147.159 53.548h-1.566l-.136-.136-.136-.272h-.136a2.3 2.3 0 0 1-1.566.545c-1.566 0-2.519-.817-2.519-2.246 0-2.11 1.974-2.383 3.131-2.383a3.324 3.324 0 0 1 .953.136l.136-.136v-.136c0-.681-.136-.817-.953-.817-.408 0-.817 0-.953.408l-.136.136h-1.7l-.136-.136c0-.817.681-2.11 2.927-2.11s2.927 1.157 2.927 3.268v3.811zm-1.974-2.927a1.976 1.976 0 0 0-.817-.136c-.817 0-1.293.272-1.293.817 0 .408.272.681.953.681s1.293-.408 1.293-.953v-.272z" class="cls-1" data-name="Path 146" transform="translate(-45.047 -14.813)"/>
            <path id="Path_147" d="M158.935 53.548h-1.7l-.136-.136v-4.085c0-.681-.272-1.293-1.157-1.293-.953 0-1.566.545-1.566 1.838v3.54l-.136.136h-1.7l-.136-.136v-6.74l.136-.136h1.56l.136.136.136.408h.136a2.457 2.457 0 0 1 1.838-.681A2.539 2.539 0 0 1 159 49.191v4.221z" class="cls-1" data-name="Path 147" transform="translate(-48.654 -14.813)"/>
            <path id="Path_148" d="M166.931 53.684c-1.974 0-3.131-.953-3.131-2.383l.136-.136h1.7l.136.136c0 .545.408.681 1.157.681.681 0 1.157-.136 1.157-.545 0-.545-.545-.545-1.43-.681-.817-.136-2.655-.545-2.655-2.246 0-1.157.817-2.11 2.927-2.11 1.7 0 2.927.681 2.927 2.11l-.136.136h-1.7l-.136-.136c0-.272-.272-.408-.953-.408s-.953.136-.953.545c0 .545.817.545 1.7.681.817.136 2.383.408 2.383 2.11.003 1.089-.882 2.246-3.129 2.246z" class="cls-1" data-name="Path 148" transform="translate(-52.294 -14.813)"/>
            <path id="Path_149" d="M176.638 44.1h-1.7l-.136-.136v-1.43l.136-.136h1.7l.136.136v1.43zm0 8.169h-1.7l-.136-.136V45.4l.136-.136h1.7l.136.136v6.739z" class="cls-1" data-name="Path 149" transform="translate(-55.806 -13.536)"/>
            <path id="Path_150" d="M182.6 50.735a.361.361 0 0 0 .408.408h1.292l.136.136v1.43l-.136.136h-1.293c-1.293 0-2.383-.545-2.383-2.11V47.6l-.136-.136h-.953l-.136-.136V45.9l.136-.136h.953l.136-.136v-1.292l.136-.136h1.7l.136.136v1.294l.136.136h1.568l.136.136v1.43l-.136.136h-1.566l-.136.136z" class="cls-1" data-name="Path 150" transform="translate(-57.274 -14.111)"/>
        </g>
    </g>
</svg>
